<svg id="mastercard" xmlns="http://www.w3.org/2000/svg" width="35" height="35" viewBox="0 0 35 35">
  <ellipse id="Ellipse_380" data-name="Ellipse 380" cx="17.5" cy="17.5" rx="17.5" ry="17.5" transform="translate(0 0)" fill="#3c80ad"/>
  <path id="Tracé_2283" data-name="Tracé 2283" d="M60.144,121.955A8.932,8.932,0,1,0,66.2,137.492h0a8.967,8.967,0,0,0,.905-.957H65.279a8.646,8.646,0,0,1-.665-.921h3.149a8.932,8.932,0,0,0,.52-.956H64.095a8.7,8.7,0,0,1-.373-.938h4.933a8.914,8.914,0,0,0,.459-2.833,9.011,9.011,0,0,0-.205-1.913H63.46a9.093,9.093,0,0,1,.254-.938H68.65a8.953,8.953,0,0,0-.384-.956H64.094a8.617,8.617,0,0,1,.511-.938h3.147a8.876,8.876,0,0,0-.691-.956H65.306a8.166,8.166,0,0,1,.894-.9,8.865,8.865,0,0,0-6-2.329Z" transform="translate(-47.09 -113.781)" fill="#931b1d"/>
  <path id="Tracé_2284" data-name="Tracé 2284" d="M215.2,130.89a8.913,8.913,0,1,1-17.826,0v0a8.913,8.913,0,1,1,17.826,0S215.2,130.888,215.2,130.89Z" transform="translate(-185.013 -113.781)" fill="#f16622"/>
  <path id="Tracé_2285" data-name="Tracé 2285" d="M215.2,132.1a8.913,8.913,0,1,1-17.826,0v0a8.913,8.913,0,1,1,17.826,0S215.2,132.1,215.2,132.1Z" transform="translate(-185.013 -114.912)" fill="#f7981d"/>
  <path id="Tracé_2286" data-name="Tracé 2286" d="M60.144,123.193A8.933,8.933,0,1,0,66.2,138.731h0a8.832,8.832,0,0,0,.905-.957H65.279a8.573,8.573,0,0,1-.665-.919h3.149a9.011,9.011,0,0,0,.52-.957H64.095a8.77,8.77,0,0,1-.373-.938h4.933a8.918,8.918,0,0,0,.459-2.833,9.009,9.009,0,0,0-.205-1.913H63.46a9.1,9.1,0,0,1,.254-.938H68.65a8.964,8.964,0,0,0-.384-.957H64.094a8.7,8.7,0,0,1,.511-.938h3.147a9.039,9.039,0,0,0-.691-.956H65.306a8.271,8.271,0,0,1,.894-.9,8.866,8.866,0,0,0-6-2.328Z" transform="translate(-47.09 -114.936)" fill="#cb2026"/>
  <g id="Groupe_1076" data-name="Groupe 1076" transform="translate(5.043 14.851)">
    <path id="Tracé_2287" data-name="Tracé 2287" d="M182.9,213.158l.119-.808c-.065,0-.16.028-.245.028-.33,0-.367-.176-.345-.306l.267-1.65h.5l.121-.895h-.473l.1-.556h-.949c-.021.021-.56,3.128-.56,3.505a.705.705,0,0,0,.756.806A2.494,2.494,0,0,0,182.9,213.158Z" transform="translate(-173.042 -208.577)" fill="#fff"/>
    <path id="Tracé_2288" data-name="Tracé 2288" d="M203.035,216.67a1.491,1.491,0,0,0,1.639,1.664,2.4,2.4,0,0,0,1-.156l.168-.917a2.935,2.935,0,0,1-1.008.235c-1.019,0-.84-.762-.84-.762h1.929a6.9,6.9,0,0,0,.124-.868,1.274,1.274,0,0,0-1.353-1.39C203.741,214.475,203.035,215.505,203.035,216.67Zm1.664-1.343c.535,0,.436.6.436.652h-1.053C204.082,215.916,204.182,215.326,204.7,215.326Z" transform="translate(-193.212 -213.63)" fill="#fff"/>
    <path id="Tracé_2289" data-name="Tracé 2289" d="M268.32,208.73l.17-1.038a2.272,2.272,0,0,1-.785.235.941.941,0,0,1-.943-1.069c0-1.123.579-1.741,1.224-1.741a1.686,1.686,0,0,1,.872.273l.155-1.007a3.393,3.393,0,0,0-1.068-.234c-1.1,0-2.162.952-2.162,2.742,0,1.185.576,1.969,1.708,1.969A4.362,4.362,0,0,0,268.32,208.73Z" transform="translate(-251.622 -204.149)" fill="#fff"/>
    <path id="Tracé_2290" data-name="Tracé 2290" d="M115.8,214.654a3.278,3.278,0,0,0-1.15.209l-.137.819a3,3,0,0,1,1.034-.167c.353,0,.612.04.612.328a.612.612,0,0,1-.032.239s-.278-.024-.408-.024c-.82,0-1.683.351-1.683,1.41a.9.9,0,0,0,.916,1.025,1.233,1.233,0,0,0,.974-.437l-.031.364h.835l.373-2.62A1.123,1.123,0,0,0,115.8,214.654Zm.2,2.132c.018.16-.1.91-.672.91a.347.347,0,0,1-.371-.36c0-.26.141-.573.837-.573A.619.619,0,0,1,116,216.786Z" transform="translate(-110.398 -213.794)" fill="#fff"/>
    <path id="Tracé_2291" data-name="Tracé 2291" d="M150.417,218.542c.213,0,1.435.055,1.435-1.209,0-1.181-1.131-.948-1.131-1.423,0-.235.184-.311.521-.311.134,0,.649.043.649.043l.12-.84a4.438,4.438,0,0,0-.875-.074c-.7,0-1.415.28-1.415,1.241,0,1.09,1.188.98,1.188,1.438,0,.306-.332.331-.588.331a3.086,3.086,0,0,1-.842-.145l-.126.831A2.966,2.966,0,0,0,150.417,218.542Z" transform="translate(-143.243 -213.862)" fill="#fff"/>
    <path id="Tracé_2292" data-name="Tracé 2292" d="M362.381,205.422l-.2,1.273a1.254,1.254,0,0,0-.916-.494c-.87,0-1.595,1.05-1.595,2.258,0,.779.386,1.542,1.177,1.542a1.184,1.184,0,0,0,.883-.4l-.041.339h.923l.725-4.523Zm-.44,2.483c0,.5-.249,1.172-.763,1.172-.342,0-.5-.287-.5-.738,0-.737.33-1.224.747-1.224C361.765,207.115,361.941,207.35,361.941,207.9Z" transform="translate(-339.062 -205.316)" fill="#fff"/>
    <path id="Tracé_2293" data-name="Tracé 2293" d="M62.533,209.936l.578-3.415.084,3.415h.654l1.22-3.415-.54,3.415H65.5l.749-4.528h-1.5l-.936,2.778-.049-2.778H62.378l-.759,4.528Z" transform="translate(-61.619 -205.305)" fill="#fff"/>
    <path id="Tracé_2294" data-name="Tracé 2294" d="M240.522,218.916c.276-1.574.327-2.852.987-2.619a3.685,3.685,0,0,1,.352-1.1.986.986,0,0,0-.183-.013c-.424,0-.739.582-.739.582l.084-.534h-.884l-.591,3.686Z" transform="translate(-227.128 -214.279)" fill="#fff"/>
    <path id="Tracé_2295" data-name="Tracé 2295" d="M303.764,214.654a3.275,3.275,0,0,0-1.149.209l-.137.819a2.993,2.993,0,0,1,1.034-.167c.353,0,.612.04.612.328a.606.606,0,0,1-.032.239s-.278-.024-.409-.024c-.821,0-1.682.351-1.682,1.41a.9.9,0,0,0,.916,1.025,1.23,1.23,0,0,0,.973-.437l-.031.364h.836l.373-2.62A1.123,1.123,0,0,0,303.764,214.654Zm.2,2.132c.018.16-.1.91-.672.91a.346.346,0,0,1-.371-.36c0-.26.141-.573.836-.573A.622.622,0,0,1,303.968,216.786Z" transform="translate(-285.31 -213.794)" fill="#fff"/>
    <path id="Tracé_2296" data-name="Tracé 2296" d="M337.868,218.916c.277-1.574.328-2.852.987-2.619a3.661,3.661,0,0,1,.353-1.1,1,1,0,0,0-.183-.013c-.425,0-.74.582-.74.582l.085-.534h-.884l-.592,3.686h.974Z" transform="translate(-318.153 -214.279)" fill="#fff"/>
  </g>
</svg>
