<svg xmlns="http://www.w3.org/2000/svg" width="15.148" height="20.656" viewBox="0 0 15.148 20.656">
  <g id="padlock_1_" data-name="padlock (1)" transform="translate(-68.266)">
    <g id="Groupe_1080" data-name="Groupe 1080" transform="translate(68.266)">
      <g id="Groupe_1079" data-name="Groupe 1079">
        <path id="Tracé_2304" data-name="Tracé 2304" d="M81.692,9.639V5.852a5.852,5.852,0,0,0-11.7,0V9.639a1.723,1.723,0,0,0-1.721,1.721v7.574a1.723,1.723,0,0,0,1.721,1.721h11.7a1.723,1.723,0,0,0,1.721-1.721V11.361A1.723,1.723,0,0,0,81.692,9.639ZM70.676,5.852A5.164,5.164,0,1,1,81,5.852V9.639H79.971V5.852a4.131,4.131,0,1,0-8.262,0V9.639H70.676Zm8.607,0V9.639H72.4V5.852a3.443,3.443,0,0,1,6.885,0Zm3.443,13.082a1.034,1.034,0,0,1-1.033,1.033h-11.7a1.034,1.034,0,0,1-1.033-1.033V11.361a1.034,1.034,0,0,1,1.033-1.033h11.7a1.034,1.034,0,0,1,1.033,1.033v7.574Z" transform="translate(-68.266)" fill="#fff"/>
        <path id="Tracé_2305" data-name="Tracé 2305" d="M215.054,307.2a1.721,1.721,0,0,0-1.033,3.1v1.378a1.033,1.033,0,0,0,2.066,0V310.3a1.721,1.721,0,0,0-1.033-3.1Zm.517,2.614a.345.345,0,0,0-.173.3v1.563a.344.344,0,1,1-.688,0v-1.563a.345.345,0,0,0-.173-.3,1.033,1.033,0,1,1,1.034,0Z" transform="translate(-207.481 -294.807)" fill="#fff"/>
      </g>
    </g>
  </g>
</svg>
