<svg id="visa" xmlns="http://www.w3.org/2000/svg" width="35" height="35.001" viewBox="0 0 35 35.001">
  <ellipse id="Ellipse_381" data-name="Ellipse 381" cx="17.5" cy="17.5" rx="17.5" ry="17.5" transform="translate(0 0.002)" fill="#f3f2f2"/>
  <g id="Groupe_1077" data-name="Groupe 1077" transform="translate(2.655 12.402)">
    <path id="Tracé_2297" data-name="Tracé 2297" d="M175.483,184.136l1.484-8.763h2.4l-1.484,8.763Z" transform="translate(-167.565 -175.232)" fill="#293688"/>
    <path id="Tracé_2298" data-name="Tracé 2298" d="M228.452,174.015a6.24,6.24,0,0,0-2.154-.368c-2.375,0-4.047,1.189-4.062,2.892-.013,1.259,1.194,1.961,2.106,2.381.935.429,1.25.7,1.245,1.087-.006.587-.747.856-1.438.856a5.071,5.071,0,0,1-2.262-.46l-.31-.14-.337,1.962a7.642,7.642,0,0,0,2.677.468c2.525,0,4.166-1.175,4.184-2.994.009-1-.631-1.755-2.018-2.381-.84-.4-1.354-.675-1.349-1.086,0-.364.436-.754,1.376-.754a4.455,4.455,0,0,1,1.8.336l.215.1.326-1.9Z" transform="translate(-209.578 -173.647)" fill="#293688"/>
    <path id="Tracé_2299" data-name="Tracé 2299" d="M305.494,175.373a1.194,1.194,0,0,0-1.245.746l-3.561,8.017h2.544l.495-1.343h3.039l.282,1.343h2.262l-1.979-8.763h-1.838ZM304.4,181.04c.2-.5.957-2.449.957-2.449-.014.023.2-.507.319-.836l.163.755.556,2.53H304.4Z" transform="translate(-282.524 -175.232)" fill="#293688"/>
    <path id="Tracé_2300" data-name="Tracé 2300" d="M82.275,181.38l-.212-1.2a6.846,6.846,0,0,0-3.325-3.675l2.123,7.632h2.544l3.816-8.763H84.678Z" transform="translate(-78.739 -175.232)" fill="#293688"/>
  </g>
  <g id="Groupe_1078" data-name="Groupe 1078" transform="translate(2.184 10.564)">
    <path id="Tracé_2301" data-name="Tracé 2301" d="M46.823,175.373v.142a8.2,8.2,0,0,1,5.937,4.664l-.871-4.058a1.033,1.033,0,0,0-1.108-.748Z" transform="translate(-45.176 -175.373)" fill="#f7981d"/>
    <path id="Tracé_2302" data-name="Tracé 2302" d="M42.011,356.686c6.662,0,12.438-4.243,15.315-10.453H26.7C29.573,352.443,35.349,356.686,42.011,356.686Z" transform="translate(-26.696 -332.249)" fill="#f7981d"/>
  </g>
  <path id="Tracé_2303" data-name="Tracé 2303" d="M43.711,0C37.162,0,31.467,4.107,28.548,10.157H58.875C55.956,4.108,50.26,0,43.711,0Z" transform="translate(-26.212)" fill="#293688"/>
</svg>
